<svg xmlns="http://www.w3.org/2000/svg" version="1.1" viewBox="128.82 202.86 499.18 80.34">
<path d="M0 0 C0.7528125 0.07863281 1.505625 0.15726563 2.28125 0.23828125 C4.5 0.6875 4.5 0.6875 6.58203125 1.8203125 C7.21496094 2.10648438 7.84789062 2.39265625 8.5 2.6875 C10.17775168 1.93086689 11.85413065 1.17060121 13.515625 0.37890625 C18.02764991 -1.19319692 22.4866046 -0.22290488 26.74609375 1.703125 C30.79023013 4.04798206 33.80488806 6.20043898 35.5 10.6875 C36.619116 17.86195478 36.62535028 25.07021388 36.5625 32.3125 C36.55798828 33.31667969 36.55347656 34.32085937 36.54882812 35.35546875 C36.53718967 37.79954471 36.5208424 40.2434882 36.5 42.6875 C32.23543146 44.10902285 28.15504315 43.91195293 23.6875 43.9375 C22.79740234 43.958125 21.90730469 43.97875 20.99023438 44 C14.95879035 44.03576839 10.45910625 43.44980109 5.85546875 39.15234375 C1.50647677 33.46520039 0.7012367 29.81071789 1.5 22.6875 C3.51153324 18.73627398 5.68082253 15.97900648 9.5 13.6875 C10.16 13.6875 10.82 13.6875 11.5 13.6875 C11.5 12.6975 11.5 11.7075 11.5 10.6875 C10.30375 10.72875 9.1075 10.77 7.875 10.8125 C5.03263681 10.82245574 3.3040289 10.62078643 0.5625 9.6875 C-2.34544785 8.73796601 -4.18405775 8.58137572 -7.19140625 8.625 C-7.99908447 8.63402344 -8.8067627 8.64304688 -9.63891602 8.65234375 C-10.56015259 8.66974609 -10.56015259 8.66974609 -11.5 8.6875 C-11.58770383 12.54152129 -11.64062735 16.39528291 -11.6875 20.25 C-11.71263672 21.33603516 -11.73777344 22.42207031 -11.76367188 23.54101562 C-11.82086884 29.81361652 -11.35430798 34.10624162 -8.5 39.6875 C-8.5 40.6775 -8.5 41.6675 -8.5 42.6875 C-14.77 42.6875 -21.04 42.6875 -27.5 42.6875 C-26.5 37.6875 -26.5 37.6875 -25.45849609 35.6940918 C-23.52347441 31.64316383 -24.13055611 26.90876942 -24.125 22.5 C-24.10050781 21.49646484 -24.07601563 20.49292969 -24.05078125 19.45898438 C-24.02419742 12.64909368 -25.19174597 7.65079189 -28.5 1.6875 C-27.5 0.6875 -27.5 0.6875 -25.70581055 0.58984375 C-24.94051025 0.60144531 -24.17520996 0.61304688 -23.38671875 0.625 C-22.1327832 0.63660156 -22.1327832 0.63660156 -20.85351562 0.6484375 C-19.0878881 0.6743075 -17.32226305 0.70034687 -15.55664062 0.7265625 C-14.2969043 0.73816406 -14.2969043 0.73816406 -13.01171875 0.75 C-11.85869263 0.76740234 -11.85869263 0.76740234 -10.68237305 0.78515625 C-6.89793749 0.61581133 -3.8527125 -0.4420064 0 0 Z M14.75 5.9375 C12.07784147 8.61127693 12.07784147 8.61127693 12.5 12.6875 C14.31242052 12.71437279 16.12495233 12.73383715 17.9375 12.75 C19.45150391 12.76740234 19.45150391 12.76740234 20.99609375 12.78515625 C23.44021067 12.97362676 23.44021067 12.97362676 24.5 11.6875 C24.79978682 8.83952522 24.90071289 7.26853368 23.25 4.875 C19.76507964 2.51023261 17.77827999 3.45981638 14.75 5.9375 Z M3.5 5.6875 C3.17 6.6775 2.84 7.6675 2.5 8.6875 C3.16 8.6875 3.82 8.6875 4.5 8.6875 C4.17 7.6975 3.84 6.7075 3.5 5.6875 Z M11.6875 16.9375 C9.36378443 18.79647246 8.64945336 19.65840686 8.2265625 22.5703125 C7.94365027 28.81614399 9.4324091 32.90951294 13.5 37.6875 C16.74826674 39.85301116 17.73094157 40.23906953 21.5 39.6875 C24.33284304 37.64155781 25.33561288 36.21588718 26.375 32.875 C26.57236041 27.84230949 25.40144355 24.13624856 22.75 19.875 C19.22081694 16.4438498 16.36622015 14.85806882 11.6875 16.9375 Z " fill="#E1E1E1" transform="translate(408.5,231.3125)"/>
<path d="M0 0 C1.27875 0.00257813 2.5575 0.00515625 3.875 0.0078125 C5.15375 0.00523437 6.4325 0.00265625 7.75 0 C10.875 0.1328125 10.875 0.1328125 11.875 1.1328125 C12.11201239 3.99159159 12.29719182 6.83164547 12.4375 9.6953125 C12.48068359 10.50162109 12.52386719 11.30792969 12.56835938 12.13867188 C12.67475262 14.13650055 12.77540888 16.1346332 12.875 18.1328125 C13.88820313 18.17019531 14.90140625 18.20757812 15.9453125 18.24609375 C17.29690939 18.31179638 18.64847029 18.37824221 20 18.4453125 C20.66515625 18.46787109 21.3303125 18.49042969 22.015625 18.51367188 C27.97385817 18.83494915 31.92758268 20.59299415 36.5625 24.2578125 C42.15973979 31.21654305 42.25237081 38.89981626 42.46875 47.58203125 C42.90517391 51.39654409 44.10472935 53.76647336 45.875 57.1328125 C45.875 58.4528125 45.875 59.7728125 45.875 61.1328125 C39.605 61.1328125 33.335 61.1328125 26.875 61.1328125 C27.60322824 58.21989952 28.40967337 55.61580233 29.4375 52.8203125 C32.34660567 44.02134264 30.35141229 36.30097728 26.4375 28.1328125 C24.61554113 25.80070515 23.71611477 24.97746824 20.875 24.1328125 C19.49421226 24.08589336 18.11196762 24.07444711 16.73046875 24.08984375 C15.45816406 24.10402344 14.18585937 24.11820313 12.875 24.1328125 C12.8005611 28.1712182 12.74626271 32.20935543 12.71020508 36.24829102 C12.69516568 37.62075767 12.67472867 38.99317664 12.64868164 40.36547852 C12.61208779 42.34369906 12.59683302 44.32227764 12.58203125 46.30078125 C12.5663208 47.48953857 12.55061035 48.6782959 12.53442383 49.90307617 C12.90784619 53.44429797 13.95006576 55.19609045 15.875 58.1328125 C15.875 59.1228125 15.875 60.1128125 15.875 61.1328125 C9.605 61.1328125 3.335 61.1328125 -3.125 61.1328125 C-3.455 60.4728125 -3.785 59.8128125 -4.125 59.1328125 C-3.36633301 57.51914978 -3.36633301 57.51914978 -2.22070312 55.59741211 C0.2353082 50.89937215 0.45744194 46.92974207 0.40625 41.69921875 C0.4100769 40.82184555 0.41390381 39.94447235 0.41784668 39.04051208 C0.42055315 37.19586023 0.41328116 35.35116916 0.39648438 33.5065918 C0.37508156 30.70598457 0.39631511 27.90794973 0.421875 25.10742188 C0.419231 23.30468192 0.41410451 21.50194354 0.40625 19.69921875 C0.41434692 18.8739418 0.42244385 18.04866486 0.43078613 17.19837952 C0.33389557 11.09423534 -1.2992259 6.51965838 -4.125 1.1328125 C-3.125 0.1328125 -3.125 0.1328125 0 0 Z " fill="#EAEAEA" transform="translate(582.125,212.8671875)"/>
<path d="M0 0 C4.95 0 9.9 0 15 0 C15.33 10.89 15.66 21.78 16 33 C18.64 31.02 21.28 29.04 24 27 C28 24 28 24 30 24 C29.505 21.525 29.505 21.525 29 19 C33.62 19 38.24 19 43 19 C42 22 42 22 38.5 23.75 C37.7884375 24.08 37.076875 24.41 36.34375 24.75 C32.18328855 26.96891277 28.62775108 30.01046439 25 33 C27.2219166 37.4438332 30.36296268 40.46864882 33.8828125 43.87890625 C35.92105618 45.92091053 37.77275009 48.03964844 39.625 50.25 C41.73444432 52.72799092 43.66617407 54.60557092 46.4375 56.3125 C47.283125 56.869375 48.12875 57.42625 49 58 C49 58.99 49 59.98 49 61 C42.73 61 36.46 61 30 61 C30.33 58.36 30.66 55.72 31 53 C29.55279746 50.09055644 29.55279746 50.09055644 27.25 47.75 C26.17492187 46.53570312 26.17492187 46.53570312 25.078125 45.296875 C24.39234375 44.53890625 23.7065625 43.7809375 23 43 C21.98424986 41.67862593 20.9780764 40.34949781 20 39 C17.525 39.495 17.525 39.495 15 40 C15.42571947 49.39840859 15.42571947 49.39840859 19 58 C19 58.99 19 59.98 19 61 C12.73 61 6.46 61 0 61 C0 58 0 58 1.4375 55.625 C4.29129796 50.83061942 4.16948718 45.84935726 4.203125 40.390625 C4.20882507 39.66437927 4.21452515 38.93813354 4.22039795 38.18988037 C4.22981298 36.656875 4.23636797 35.12384972 4.24023438 33.59082031 C4.24991191 31.27111564 4.28095564 28.95230862 4.3125 26.6328125 C4.42209317 16.52709576 4.42209317 16.52709576 1.74511719 6.85058594 C1 5 1 5 0 0 Z " fill="#E3E3E3" transform="translate(450,213)"/>
<path d="M0 0 C4.28666736 -0.07462728 8.57298207 -0.12882508 12.86010742 -0.16479492 C14.31590368 -0.17980313 15.77165532 -0.20021633 17.22729492 -0.22631836 C19.33002789 -0.26305676 21.43215885 -0.2798056 23.53515625 -0.29296875 C24.797229 -0.3086792 26.05930176 -0.32438965 27.35961914 -0.34057617 C32.21572709 0.11373746 36.18092631 1.4096942 39.92578125 4.68359375 C40.61220703 5.55177734 40.61220703 5.55177734 41.3125 6.4375 C41.78300781 7.01371094 42.25351562 7.58992187 42.73828125 8.18359375 C46.48545737 13.57813522 47.02096799 18.52491353 46 25 C43.35872263 30.49203537 39.25024263 34.08319854 34 37 C30.23699626 38.25433458 26.72789091 38.10695422 22.8125 38.0625 C22.06291016 38.05798828 21.31332031 38.05347656 20.54101562 38.04882812 C18.69397617 38.03706354 16.84697787 38.01912865 15 38 C14.64386597 45.17544118 15.11057505 50.4121111 18 57 C18.33 58.32 18.66 59.64 19 61 C12.4 61 5.8 61 -1 61 C-1 57 -1 57 0.4375 55.375 C1.2109375 54.694375 1.2109375 54.694375 2 54 C3.71880227 50.56239546 3.18504647 46.61219338 3.203125 42.828125 C3.20882507 41.91295105 3.21452515 40.9977771 3.22039795 40.05487061 C3.22985526 38.11471719 3.23638483 36.17454765 3.24023438 34.234375 C3.24991573 31.27575312 3.28092206 28.31783303 3.3125 25.359375 C3.31903252 23.47396246 3.32428201 21.58854494 3.328125 19.703125 C3.3404718 18.82166809 3.3528186 17.94021118 3.36553955 17.03204346 C3.34680754 11.82668091 2.59024026 8.62823787 0 4 C0 2.68 0 1.36 0 0 Z M17 4 C14.62967733 7.55548401 14.51900554 10.37180571 14.3125 14.5 C14.2719751 15.20962891 14.2314502 15.91925781 14.18969727 16.65039062 C13.90901059 22.49924041 14.20056909 28.19490167 15 34 C25.03226149 34.74248189 25.03226149 34.74248189 34 31 C38.44427138 26.07526685 39.36172836 23.04605317 39.27734375 16.5390625 C38.73131158 11.54017648 36.00531276 8.95504713 32.5 5.625 C27.49891339 3.30306693 22.4365908 3.0966144 17 4 Z " fill="#E0E0E0" transform="translate(331,213)"/>
<path d="M0 0 C1.95007446 3.90014891 2.25470359 5.30410106 2.2746582 9.47119141 C2.28419022 10.56557526 2.29372223 11.65995911 2.30354309 12.7875061 C2.30263168 13.96364471 2.30172028 15.13978333 2.30078125 16.3515625 C2.30506638 17.56194183 2.3093515 18.77232117 2.31376648 20.01937866 C2.31950773 22.5763893 2.32001156 25.13341628 2.31567383 27.69042969 C2.3125066 31.61681672 2.33600195 35.54245575 2.36132812 39.46875 C2.36360028 41.95051988 2.36430501 44.43229179 2.36328125 46.9140625 C2.372491 48.09424957 2.38170074 49.27443665 2.39118958 50.49038696 C2.38496078 51.57846649 2.37873199 52.66654602 2.37231445 53.78759766 C2.37294388 54.74816071 2.3735733 55.70872375 2.3742218 56.69839478 C2.25072861 57.4579245 2.12723541 58.21745422 2 59 C-1.10244611 61.06829741 -1.69705744 61.24599929 -5.19511414 61.20254517 C-6.04906769 61.19688034 -6.90302124 61.19121552 -7.78285217 61.18537903 C-8.71649094 61.16883774 -9.6501297 61.15229645 -10.61206055 61.13525391 C-11.59760925 61.12579239 -12.58315796 61.11633087 -13.59857178 61.10658264 C-16.86147437 61.07286079 -20.12400045 61.02475719 -23.38671875 60.9765625 C-25.64686596 60.95039996 -27.90702369 60.92513258 -30.16719055 60.90072632 C-36.12018131 60.83403062 -42.07295113 60.75514727 -48.02575684 60.67376709 C-54.09846507 60.59289077 -60.17130303 60.52348341 -66.24414062 60.453125 C-78.16291595 60.31333923 -90.08148939 60.16068402 -102 60 C-102.63627813 53.10302622 -103.15310515 46.26715979 -103.1328125 39.33984375 C-103.13376923 38.58385391 -103.13472595 37.82786407 -103.13571167 37.04896545 C-103.13638363 35.47201452 -103.13459927 33.89506064 -103.13037109 32.31811523 C-103.12500096 29.93792375 -103.13035396 27.55792024 -103.13671875 25.17773438 C-103.13605794 23.62760376 -103.13477672 22.07747326 -103.1328125 20.52734375 C-103.13483673 19.83430649 -103.13686096 19.14126923 -103.13894653 18.42723083 C-103.11162484 12.52299475 -102.5410515 6.95156651 -102 1 C-51.51 0.505 -51.51 0.505 0 0 Z M-100 4 C-99.83232117 4.93456024 -99.66464233 5.86912048 -99.49188232 6.83200073 C-99.01041459 9.93292419 -99.08959576 12.34433117 -99.453125 15.4453125 C-100.13999661 22.61758149 -99.99371924 29.68158965 -99.75 36.875 C-99.72292969 38.15375 -99.69585937 39.4325 -99.66796875 40.75 C-99.62800781 41.98492187 -99.58804688 43.21984375 -99.546875 44.4921875 C-99.51432617 45.59933105 -99.48177734 46.70647461 -99.44824219 47.84716797 C-98.91353533 51.60817254 -97.75650388 55.24349612 -95 58 C-92.13908182 58.09522418 -89.30236379 58.12553326 -86.44116211 58.11352539 C-85.09495033 58.11374443 -85.09495033 58.11374443 -83.72154236 58.1139679 C-80.74011866 58.11326842 -77.7587566 58.10547441 -74.77734375 58.09765625 C-72.71611058 58.09579219 -70.65487696 58.09436823 -68.59364319 58.09336853 C-63.1569599 58.08954237 -57.72030314 58.07971126 -52.28363037 58.06866455 C-46.74052286 58.05845253 -41.19741108 58.05387136 -35.65429688 58.04882812 C-24.76951957 58.03808908 -13.88476198 58.02101149 -3 58 C-2.83219004 50.47043741 -2.67222363 42.94073809 -2.51782227 35.41088867 C-2.46431065 32.84704781 -2.40897457 30.28324437 -2.35180664 27.71948242 C-2.27015057 24.04353917 -2.19496468 20.36751313 -2.12109375 16.69140625 C-2.09405869 15.53725723 -2.06702362 14.38310822 -2.03916931 13.19398499 C-2.01907303 12.13296066 -1.99897675 11.07193634 -1.97827148 9.97875977 C-1.95828598 9.03944107 -1.93830048 8.10012238 -1.91770935 7.13233948 C-1.75760371 5.01595874 -1.75760371 5.01595874 -3 4 C-6.01350238 3.90470388 -9.00404106 3.87448096 -12.01782227 3.88647461 C-12.96406464 3.88632858 -13.91030701 3.88618256 -14.88522339 3.8860321 C-18.02897392 3.88673164 -21.17266601 3.89452591 -24.31640625 3.90234375 C-26.48974068 3.90420779 -28.66307552 3.90563176 -30.83641052 3.90663147 C-36.56901195 3.91045779 -42.30158823 3.92028903 -48.03417969 3.93133545 C-53.87890279 3.94154713 -59.72362993 3.94612857 -65.56835938 3.95117188 C-77.045584 3.9619112 -88.52278991 3.97898898 -100 4 Z " fill="#448C55" transform="translate(232,222)"/>
<path d="M0 0 C5.61 0 11.22 0 17 0 C16.67 2.31 16.34 4.62 16 7 C16.49561865 9.99038797 16.49561865 9.99038797 17.546875 12.91796875 C18.10858398 14.6047876 18.10858398 14.6047876 18.68164062 16.32568359 C21.0887814 23.03447408 23.64025622 29.68030631 26.25 36.3125 C26.81032137 37.7465786 27.37021958 39.18082261 27.9296875 40.61523438 C29.28160445 44.07873606 30.6391673 47.53999006 32 51 C32.99 51 33.98 51 35 51 C35.14405273 50.4644751 35.28810547 49.9289502 35.43652344 49.37719727 C36.98630744 43.91077845 38.86834537 38.62275963 40.953125 33.33984375 C41.21903442 32.65991364 41.48494385 31.97998352 41.75891113 31.27944946 C42.86628219 28.44901994 43.97438812 25.61943676 45.11328125 22.80151367 C49.67081167 11.74932015 49.67081167 11.74932015 49 0 C52.96 0 56.92 0 61 0 C60 4 60 4 58.171875 5.66015625 C54.97155337 9.10798476 53.81811075 13.05253128 52.25 17.4375 C51.55095791 19.32949237 50.85173382 21.22141749 50.15234375 23.11328125 C49.62036377 24.57048584 49.62036377 24.57048584 49.07763672 26.05712891 C47.35586694 30.75903487 45.58891047 35.44350643 43.8125 40.125 C43.48088867 41.00043457 43.14927734 41.87586914 42.80761719 42.77783203 C40.43841469 48.98068401 37.86292162 55.00575786 35 61 C31.37 61 27.74 61 24 61 C19.88481607 50.95253795 15.88897402 40.90036529 12.375 30.625 C8.49556855 17.02617463 8.49556855 17.02617463 1.328125 5.37890625 C0 4 0 4 0 0 Z M33 52 C32.67 52.66 32.34 53.32 32 54 C32.66 54 33.32 54 34 54 C33.67 53.34 33.34 52.68 33 52 Z " fill="#E3E3E3" transform="translate(259,213)"/>
<path d="M0 0 C-0.33 1.65 -0.66 3.3 -1 5 C-0.21109375 5.08636719 0.5778125 5.17273438 1.390625 5.26171875 C6.11004227 6.2270541 10.31884608 7.95438295 14.75 9.8125 C16.04357422 10.32780273 16.04357422 10.32780273 17.36328125 10.85351562 C18.18699219 11.19705078 19.01070312 11.54058594 19.859375 11.89453125 C20.60670898 12.20237549 21.35404297 12.51021973 22.12402344 12.82739258 C24.43243212 14.27029821 25.10146786 15.45410782 26 18 C25.58203125 20.5234375 25.58203125 20.5234375 24 23 C21.53368443 24.43017116 19.29783056 25.55001163 16.6875 26.625 C15.35697949 27.19798846 14.02752768 27.77346564 12.69921875 28.3515625 C12.0645166 28.62419922 11.42981445 28.89683594 10.77587891 29.17773438 C8.78307894 30.06117824 8.78307894 30.06117824 6.19140625 31.6953125 C3.5848254 33.2471806 1.98481426 33.33164603 -1 33 C-2 32 -2 32 -2.25 28.625 C-2 25 -2 25 -0.77734375 23.37890625 C1.3118628 21.7580493 3.16312368 21.08078844 5.6875 20.3125 C6.49574219 20.06113281 7.30398437 19.80976563 8.13671875 19.55078125 C8.75160156 19.36902344 9.36648437 19.18726563 10 19 C9.30132812 18.75765625 8.60265625 18.5153125 7.8828125 18.265625 C6.51769531 17.76289063 6.51769531 17.76289063 5.125 17.25 C4.22007812 16.92515625 3.31515625 16.6003125 2.3828125 16.265625 C0 15 0 15 -1.3828125 13.046875 C-2 11 -2 11 -1 8 C-1.66 8 -2.32 8 -3 8 C-3.103125 9.216875 -3.20625 10.43375 -3.3125 11.6875 C-3.98838803 17.90964572 -5.50861963 23.93130125 -7 30 C-6.34 30 -5.68 30 -5 30 C-5 32.31 -5 34.62 -5 37 C-6 37 -7 37 -8 37 C-8 37.33 -8 37.66 -8 38 C-10.64 38 -13.28 38 -16 38 C-16.07528931 37.09652832 -16.07528931 37.09652832 -16.15209961 36.17480469 C-16.83817937 33.76441292 -16.83817937 33.76441292 -19.40844727 32.53613281 C-20.45057373 32.09624023 -21.4927002 31.65634766 -22.56640625 31.203125 C-23.69111328 30.71972656 -24.81582031 30.23632812 -25.97460938 29.73828125 C-27.15861328 29.24714844 -28.34261719 28.75601562 -29.5625 28.25 C-30.75037109 27.74339844 -31.93824219 27.23679687 -33.16210938 26.71484375 C-36.10265845 25.46304374 -39.04842678 24.22552735 -42 23 C-42 20.36 -42 17.72 -42 15 C-35.58036351 11.66235713 -29.08360565 8.7177317 -22.37109375 6.015625 C-20.08732848 5.21118691 -20.08732848 5.21118691 -19 4 C-17.33382885 3.95936168 -15.66611905 3.957279 -14 4 C-13.59381846 8.14305169 -13.50005052 10.29039428 -15.9375 13.75 C-19.74612764 16.54817541 -23.4718948 17.78658619 -28 19 C-26.84371094 19.38091797 -26.84371094 19.38091797 -25.6640625 19.76953125 C-24.66117188 20.11371094 -23.65828125 20.45789063 -22.625 20.8125 C-21.12839844 21.31716797 -21.12839844 21.31716797 -19.6015625 21.83203125 C-17 23 -17 23 -15 26 C-14.81824219 25.03320312 -14.63648438 24.06640625 -14.44921875 23.0703125 C-10.41755128 1.98138166 -10.41755128 1.98138166 -6.5625 -0.6875 C-4.00962989 -0.99882562 -2.39793412 -0.88812375 0 0 Z M-6 3 C-9.04293103 13.60816272 -11.85784618 24.16731971 -14 35 C-13.01 34.67 -12.02 34.34 -11 34 C-10.0157946 31.60301597 -10.0157946 31.60301597 -9.39453125 28.64453125 C-9.00297852 26.99807617 -9.00297852 26.99807617 -8.60351562 25.31835938 C-8.34248047 24.16142578 -8.08144531 23.00449219 -7.8125 21.8125 C-7.53986328 20.67490234 -7.26722656 19.53730469 -6.98632812 18.36523438 C-5.76356053 13.11560809 -4.84433201 8.41412275 -5 3 C-5.33 3 -5.66 3 -6 3 Z M-30.125 12.1875 C-30.86621094 12.47947266 -31.60742188 12.77144531 -32.37109375 13.07226562 C-34.38812045 13.92959416 -36.20111166 14.74673247 -38 16 C-39.11892664 18.60727607 -39.11892664 18.60727607 -39 21 C-36.04435292 22.33934716 -33.0850622 23.67044247 -30.125 25 C-29.28324219 25.3815625 -28.44148437 25.763125 -27.57421875 26.15625 C-26.76855469 26.5171875 -25.96289062 26.878125 -25.1328125 27.25 C-24.01737061 27.75273437 -24.01737061 27.75273437 -22.87939453 28.265625 C-21.02582389 29.12131741 -21.02582389 29.12131741 -19 29 C-19 28.01 -19 27.02 -19 26 C-21.2898234 24.9955866 -23.5816599 23.99632388 -25.875 23 C-26.52597656 22.71382813 -27.17695313 22.42765625 -27.84765625 22.1328125 C-31.29638339 20.54074235 -31.29638339 20.54074235 -35 20 C-32.3472624 16.73435552 -29.19635729 15.73529921 -25.3125 14.3125 C-23.54326172 13.65701172 -23.54326172 13.65701172 -21.73828125 12.98828125 C-20.83464844 12.66214844 -19.93101562 12.33601562 -19 12 C-19 11.01 -19 10.02 -19 9 C-23.11952948 9 -26.39648959 10.60501272 -30.125 12.1875 Z M1 9 C1.69039156 12.22155423 1.69039156 12.22155423 4.6171875 13.38671875 C5.69226563 13.81597656 6.76734375 14.24523437 7.875 14.6875 C8.94492188 15.12449219 10.01484375 15.56148437 11.1171875 16.01171875 C13.96506052 17.16214578 13.96506052 17.16214578 17 17 C17.33 18.65 17.66 20.3 18 22 C18.99 21.67 19.98 21.34 21 21 C21.16565834 18.60383132 21.16565834 18.60383132 20 16 C17.36560789 14.28729304 14.50175484 13.26912668 11.5625 12.1875 C10.77294922 11.87619141 9.98339844 11.56488281 9.16992188 11.24414062 C5.19573141 9.58708898 5.19573141 9.58708898 1 9 Z M6.75 23.5 C5.13351563 24.19609375 5.13351563 24.19609375 3.484375 24.90625 C2.66453125 25.2671875 1.8446875 25.628125 1 26 C1 26.99 1 27.98 1 29 C6.20638101 27.36866728 11.24581009 25.7336592 16 23 C16.33 22.34 16.66 21.68 17 21 C12.75719508 21 10.59461608 21.82842779 6.75 23.5 Z " fill="#57A169" transform="translate(190,234)"/>
<path d="M0 0 C3.74563544 2.64397796 6.57842799 4.95180824 7.78295898 9.49682617 C8.24714677 12.65593641 8.29973787 15.66990578 8.28515625 18.86328125 C8.28193359 20.11044922 8.27871094 21.35761719 8.27539062 22.64257812 C8.26282227 24.58293945 8.26282227 24.58293945 8.25 26.5625 C8.24548828 27.87541016 8.24097656 29.18832031 8.23632812 30.54101562 C8.22455949 33.7773901 8.2081176 37.01367178 8.1875 40.25 C4.14607785 40.36662261 0.10509135 40.4373935 -3.9375 40.5 C-5.07960938 40.53351563 -6.22171875 40.56703125 -7.3984375 40.6015625 C-18.01781045 40.72504358 -18.01781045 40.72504358 -22.8125 36.25 C-26.12166013 32.53383087 -27.52137941 28.32206074 -27.27734375 23.3046875 C-26.39950273 19.42448265 -24.12958715 16.41668577 -21.8125 13.25 C-21.1525 12.26 -20.4925 11.27 -19.8125 10.25 C-18.8225 10.25 -17.8325 10.25 -16.8125 10.25 C-16.8125 9.59 -16.8125 8.93 -16.8125 8.25 C-19.1225 8.25 -21.4325 8.25 -23.8125 8.25 C-23.33775937 3.9773343 -20.96915032 1.976198 -17.8125 -0.75 C-12.29016034 -4.12476313 -5.51750649 -2.91893892 0 0 Z M-12.5625 3 C-13.74244352 5.12389833 -14.38746962 6.86982989 -14.8125 9.25 C-10.87344403 10.39889133 -6.87684042 10.77582695 -2.8125 11.25 C-2.93625 9.97125 -3.06 8.6925 -3.1875 7.375 C-3.25710938 6.65570313 -3.32671875 5.93640625 -3.3984375 5.1953125 C-3.67624749 3.02331755 -3.67624749 3.02331755 -5.8125 1.25 C-8.99881665 0.75979744 -10.23794927 0.67544927 -12.5625 3 Z M-16.125 13.75 C-18.45693017 15.82282682 -19.0821255 17.19570662 -19.8125 20.25 C-19.8125 25.28904947 -18.85948218 29.14829322 -15.8125 33.25 C-15.19375 34.1471875 -15.19375 34.1471875 -14.5625 35.0625 C-11.67738313 37.02025787 -9.18129344 36.61094215 -5.8125 36.25 C-3.70891619 34.70737187 -2.97195841 33.56891683 -1.8125 31.25 C-1.75330411 25.33041133 -2.75122536 20.73877723 -6.8125 16.25 C-9.80484634 14.28757752 -12.48699331 12.96340396 -16.125 13.75 Z " fill="#E2E2E2" transform="translate(527.8125,233.75)"/>
<path d="M0 0 C1.25558212 -0.00422974 1.25558212 -0.00422974 2.53652954 -0.00854492 C3.44630051 -0.00652069 4.35607147 -0.00449646 5.29341125 -0.00241089 C6.25799255 -0.00416321 7.22257385 -0.00591553 8.21638489 -0.00772095 C11.40394388 -0.01212166 14.5914474 -0.0092084 17.77900696 -0.00582886 C19.99049897 -0.00650224 22.20199091 -0.00747256 24.41348267 -0.00872803 C29.04615484 -0.01020245 33.67880773 -0.00805801 38.31147766 -0.00338745 C44.26380536 0.00231967 50.21608806 -0.00097701 56.16841412 -0.00695992 C60.73299502 -0.01056389 65.29756516 -0.00942787 69.86214638 -0.00683212 C72.05790525 -0.00616292 74.25366509 -0.00699105 76.44942284 -0.00931168 C79.50942473 -0.0118366 82.56935242 -0.00800033 85.62934875 -0.00241089 C86.54519241 -0.00443512 87.46103607 -0.00645935 88.40463257 -0.00854492 C94.65302378 0.01271922 94.65302378 0.01271922 95.76728821 1.12698364 C96.03104404 3.79970941 96.23577278 6.4478078 96.39228821 9.12698364 C96.44385071 9.87721802 96.49541321 10.62745239 96.54853821 11.40042114 C96.66555338 13.30708014 96.72122111 15.21729286 96.76728821 17.12698364 C95.76728821 18.12698364 95.76728821 18.12698364 94.03565121 18.25003147 C93.27701558 18.24910968 92.51837996 18.24818789 91.73675537 18.24723816 C90.86872284 18.24861282 90.00069031 18.24998749 89.10635376 18.25140381 C88.14682297 18.24780853 87.18729218 18.24421326 86.19868469 18.24050903 C85.1939209 18.24065506 84.1891571 18.24080109 83.15394592 18.24095154 C79.81540303 18.24025194 76.47691516 18.23245738 73.13838196 18.22463989 C70.83052603 18.22277588 68.5226697 18.2213519 66.21481323 18.22035217 C60.12710995 18.21652569 54.03943035 18.20669429 47.95173645 18.19564819 C41.74507467 18.18543687 35.53840908 18.18085515 29.33174133 18.17581177 C17.14357986 18.16507214 4.955436 18.14799416 -7.23271179 18.12698364 C-8.23935043 14.46267966 -8.33329859 11.18566335 -8.29521179 7.37698364 C-8.28618835 6.20651489 -8.27716492 5.03604614 -8.26786804 3.83010864 C-8.25626648 2.93807739 -8.24466492 2.04604614 -8.23271179 1.12698364 C-5.41826748 0.32898832 -2.92192604 0.00151935 0 0 Z M-4.23271179 3.12698364 C-4.23271179 4.11698364 -4.23271179 5.10698364 -4.23271179 6.12698364 C-4.23271179 8.79365031 -4.23271179 11.46031698 -4.23271179 14.12698364 C-0.8781905 15.24515741 1.63147085 15.24724234 5.16645813 15.24050903 C6.13271873 15.24072807 6.13271873 15.24072807 7.11849976 15.24095154 C9.24495323 15.2402556 11.37131881 15.23247812 13.49775696 15.22463989 C14.97320508 15.22277458 16.44865382 15.22135121 17.92410278 15.22035217 C21.80554416 15.2165359 25.68694806 15.2067132 29.56837463 15.19564819 C33.52985629 15.18541495 37.49134401 15.18085045 41.45283508 15.17581177 C49.22433654 15.16509015 56.99580712 15.1480244 64.76728821 15.12698364 C64.76728821 12.48698364 64.76728821 9.84698364 64.76728821 7.12698364 C73.34728821 7.12698364 81.92728821 7.12698364 90.76728821 7.12698364 C90.43728821 9.76698364 90.10728821 12.40698364 89.76728821 15.12698364 C90.42728821 15.12698364 91.08728821 15.12698364 91.76728821 15.12698364 C93.17605225 10.9006915 92.76728821 8.01794613 92.76728821 3.12698364 C60.75728821 3.12698364 28.74728821 3.12698364 -4.23271179 3.12698364 Z M66.76728821 9.12698364 C66.76728821 10.11698364 66.76728821 11.10698364 66.76728821 12.12698364 C67.75728821 12.12698364 68.74728821 12.12698364 69.76728821 12.12698364 C69.76728821 11.13698364 69.76728821 10.14698364 69.76728821 9.12698364 C68.77728821 9.12698364 67.78728821 9.12698364 66.76728821 9.12698364 Z M75.76728821 9.12698364 C75.76728821 10.11698364 75.76728821 11.10698364 75.76728821 12.12698364 C76.75728821 11.79698364 77.74728821 11.46698364 78.76728821 11.12698364 C78.76728821 10.46698364 78.76728821 9.80698364 78.76728821 9.12698364 C77.77728821 9.12698364 76.78728821 9.12698364 75.76728821 9.12698364 Z M84.76728821 9.12698364 C84.76728821 10.11698364 84.76728821 11.10698364 84.76728821 12.12698364 C85.75728821 12.12698364 86.74728821 12.12698364 87.76728821 12.12698364 C87.76728821 11.13698364 87.76728821 10.14698364 87.76728821 9.12698364 C86.77728821 9.12698364 85.78728821 9.12698364 84.76728821 9.12698364 Z M80.76728821 13.12698364 C80.76728821 13.78698364 80.76728821 14.44698364 80.76728821 15.12698364 C81.42728821 14.79698364 82.08728821 14.46698364 82.76728821 14.12698364 C82.10728821 13.79698364 81.44728821 13.46698364 80.76728821 13.12698364 Z " fill="#5DAE70" transform="translate(137.2327117919922,202.87301635742188)"/>
<path d="M0 0 C0 2.31 0 4.62 0 7 C-3.32218282 6.62032196 -4.84143223 6.13417273 -7.4375 3.9375 C-10.58077054 1.56088081 -12.14440059 1.49709573 -16 2 C-16.99 2.66 -17.98 3.32 -19 4 C-18.73864801 5.93454651 -18.73864801 5.93454651 -18 8 C-15.59981119 9.63622628 -13.28818955 11.05368479 -10.75 12.4375 C-3.75864328 16.29689056 2.11621507 20.14969658 5 28 C4.9256221 31.64451721 4.22738016 33.6152028 2.375 36.75 C-1.37454552 40.30220102 -5.16192489 40.81979656 -10.1875 41.3125 C-23.80357143 40.19642857 -23.80357143 40.19642857 -28 36 C-28.125 33.375 -28.125 33.375 -28 31 C-25.8125 30.1875 -25.8125 30.1875 -23 30 C-22.2575 30.78375 -21.515 31.5675 -20.75 32.375 C-17.44312849 35.53155916 -15.57712482 35.73354963 -11.18359375 36.15234375 C-8.69322602 35.97859716 -7.14075826 35.24756207 -5 34 C-5.30378033 30.82658049 -5.58071033 29.38518079 -7.96875 27.19140625 C-8.8040625 26.65386719 -9.639375 26.11632812 -10.5 25.5625 C-11.39847656 24.96695312 -12.29695312 24.37140625 -13.22265625 23.7578125 C-14.993952 22.63673924 -16.77198908 21.52619907 -18.55859375 20.4296875 C-26.56539447 15.4073593 -26.56539447 15.4073593 -28 10 C-27.40860047 5.7123534 -26.67405234 3.65676894 -23.5625 0.625 C-16.83988331 -3.63812278 -7.14324759 -3.17477671 0 0 Z " fill="#DFDFDF" transform="translate(570,234)"/>
<path d="M0 0 C0.33 0 0.66 0 1 0 C1.33 5.61 1.66 11.22 2 17 C6.66567281 17.20901367 6.66567281 17.20901367 11.33251953 17.38793945 C17.212914 17.7156913 21.1202259 19.51366699 25.6875 23.125 C31.28473979 30.08373055 31.37737081 37.76700376 31.59375 46.44921875 C32.03017391 50.26373159 33.22972935 52.63366086 35 56 C35 57.32 35 58.64 35 60 C28.73 60 22.46 60 16 60 C16.72822824 57.08708702 17.53467337 54.48298983 18.5625 51.6875 C21.47160567 42.88853014 19.47641229 35.16816478 15.5625 27 C13.7638843 24.69777191 12.79373428 23.85364103 10 23 C7.66796188 22.9222654 5.33160941 22.91032272 3 23 C3.33 22.01 3.66 21.02 4 20 C2.68 20.33 1.36 20.66 0 21 C0 14.07 0 7.14 0 0 Z " fill="#E9E9E9" transform="translate(593,214)"/>
<path d="M0 0 C-0.33 1.65 -0.66 3.3 -1 5 C-0.21109375 5.08636719 0.5778125 5.17273438 1.390625 5.26171875 C6.11004227 6.2270541 10.31884608 7.95438295 14.75 9.8125 C15.61238281 10.15603516 16.47476563 10.49957031 17.36328125 10.85351562 C18.18699219 11.19705078 19.01070312 11.54058594 19.859375 11.89453125 C20.60670898 12.20237549 21.35404297 12.51021973 22.12402344 12.82739258 C24.43243212 14.27029821 25.10146786 15.45410782 26 18 C25.58203125 20.5234375 25.58203125 20.5234375 24 23 C21.53368443 24.43017116 19.29783056 25.55001163 16.6875 26.625 C15.35697949 27.19798846 14.02752768 27.77346564 12.69921875 28.3515625 C12.0645166 28.62419922 11.42981445 28.89683594 10.77587891 29.17773438 C8.78307894 30.06117824 8.78307894 30.06117824 6.19140625 31.6953125 C3.5848254 33.2471806 1.98481426 33.33164603 -1 33 C-2 32 -2 32 -2.25 28.625 C-2 25 -2 25 -0.77734375 23.37890625 C1.3118628 21.7580493 3.16312368 21.08078844 5.6875 20.3125 C6.49574219 20.06113281 7.30398437 19.80976563 8.13671875 19.55078125 C8.75160156 19.36902344 9.36648437 19.18726563 10 19 C9.30132812 18.75765625 8.60265625 18.5153125 7.8828125 18.265625 C6.97273438 17.93046875 6.06265625 17.5953125 5.125 17.25 C4.22007812 16.92515625 3.31515625 16.6003125 2.3828125 16.265625 C0 15 0 15 -1.3828125 13.046875 C-2 11 -2 11 -1 8 C-1.99 8.33 -2.98 8.66 -4 9 C-4 6.69 -4 4.38 -4 2 C-4.66 2 -5.32 2 -6 2 C-6.09796875 2.59683594 -6.1959375 3.19367188 -6.296875 3.80859375 C-7.81750968 12.63089667 -9.89942367 21.30198247 -12 30 C-12.99 30 -13.98 30 -15 30 C-14.12465875 21.07151929 -12.07412744 12.35541205 -9.5625 3.75 C-9.35753906 3.04359375 -9.15257812 2.3371875 -8.94140625 1.609375 C-8 0 -8 0 -6.04296875 -0.76171875 C-3.76633565 -1.0272534 -2.16920091 -0.69724315 0 0 Z M1 9 C1.69039156 12.22155423 1.69039156 12.22155423 4.6171875 13.38671875 C5.69226563 13.81597656 6.76734375 14.24523437 7.875 14.6875 C8.94492188 15.12449219 10.01484375 15.56148437 11.1171875 16.01171875 C13.96506052 17.16214578 13.96506052 17.16214578 17 17 C17.33 18.65 17.66 20.3 18 22 C18.99 21.67 19.98 21.34 21 21 C21.16565834 18.60383132 21.16565834 18.60383132 20 16 C17.36560789 14.28729304 14.50175484 13.26912668 11.5625 12.1875 C10.77294922 11.87619141 9.98339844 11.56488281 9.16992188 11.24414062 C5.19573141 9.58708898 5.19573141 9.58708898 1 9 Z M6.75 23.5 C5.13351563 24.19609375 5.13351563 24.19609375 3.484375 24.90625 C2.66453125 25.2671875 1.8446875 25.628125 1 26 C1 26.99 1 27.98 1 29 C6.20638101 27.36866728 11.24581009 25.7336592 16 23 C16.33 22.34 16.66 21.68 17 21 C12.75719508 21 10.59461608 21.82842779 6.75 23.5 Z " fill="#59A16A" transform="translate(190,234)"/>
<path d="M0 0 C33.66 0 67.32 0 102 0 C102 18.81 102 37.62 102 57 C101.67 57 101.34 57 101 57 C101 38.85 101 20.7 101 2 C68.33 2 35.66 2 2 2 C2 4.97 2 7.94 2 11 C1.34 11 0.68 11 0 11 C0 7.37 0 3.74 0 0 Z " fill="#7BC78E" transform="translate(130,223)"/>
<path d="M0 0 C0.33 0.66 0.66 1.32 1 2 C5.64586892 1.51515724 5.64586892 1.51515724 10 0 C10.12375 0.639375 10.2475 1.27875 10.375 1.9375 C10.58125 2.618125 10.7875 3.29875 11 4 C11.66 4.33 12.32 4.66 13 5 C11.35 5.66 9.7 6.32 8 7 C8.66 7.66 9.32 8.32 10 9 C8.68 9.33 7.36 9.66 6 10 C4.71449331 17.6975521 4.84535889 22.26803834 9.25 28.875 C11.98396783 30.63255075 14.81710021 30.69972643 18 31 C17.67 31.66 17.34 32.32 17 33 C17.99 33.66 18.98 34.32 20 35 C8.41127923 35.61898212 8.41127923 35.61898212 3.4375 33.4375 C-0.7467604 29.2532396 -2.71823363 25.97236461 -3.5625 20.0625 C-3.32634933 15.20724224 -0.79336857 11.81760371 2 8 C2.66 7.01 3.32 6.02 4 5 C4.99 5 5.98 5 7 5 C7 4.34 7 3.68 7 3 C4.69 3 2.38 3 0 3 C0 2.01 0 1.02 0 0 Z " fill="#D3D3D3" transform="translate(504,239)"/>
<path d="M0 0 C3.96 0 7.92 0 12 0 C11 4 11 4 9.171875 5.66015625 C5.971678 9.1078505 4.81770196 13.05248437 3.25 17.4375 C2.55762259 19.31522622 1.86490352 21.19282649 1.171875 23.0703125 C0.81802734 24.04000977 0.46417969 25.00970703 0.09960938 26.00878906 C-1.7208551 30.96090512 -3.61349372 35.88525463 -5.5 40.8125 C-6.17742022 42.58971538 -6.85453509 44.36704719 -7.53125 46.14453125 C-8.02083333 47.4296875 -8.51041667 48.71484375 -9 50 C-10.32 49.34 -11.64 48.68 -13 48 C-11.42443088 42.18648878 -9.49950546 36.59064579 -7.265625 30.99609375 C-7.02187134 30.38263092 -6.77811768 29.76916809 -6.52697754 29.13711548 C-5.51545415 26.593359 -4.50277308 24.05069721 -3.45947266 21.51977539 C-0.38463113 14.03191365 1.86860077 8.11783639 0 0 Z " fill="#C5C5C5" transform="translate(308,213)"/>
<path d="M0 0 C0.66 0.33 1.32 0.66 2 1 C1.49396008 3.16874252 1.00016187 4.99967627 0 7 C-0.8665056 12.96650996 -0.04576074 17.49932207 3.4375 22.45703125 C5.09812085 24.32402678 5.09812085 24.32402678 8.5625 25.1875 C12.19902055 24.98914433 13.46618543 24.53381457 16 22 C14.125 25.875 14.125 25.875 13 27 C15.97 27.33 18.94 27.66 22 28 C22 28.33 22 28.66 22 29 C19.12545466 29.25009147 16.2524034 29.4755982 13.375 29.6875 C12.56675781 29.76033203 11.75851562 29.83316406 10.92578125 29.90820312 C5.7646269 30.26486826 2.46590025 29.95032324 -2 27 C-4.99576235 24.20348075 -7.78079384 20.99801024 -8.23828125 16.828125 C-8.40635435 10.9897962 -8.01420121 7.57172915 -4 3 C-1.75 1.125 -1.75 1.125 0 0 Z " fill="#D2D2D2" transform="translate(418,245)"/>
<path d="M0 0 C2.45981428 3.68972143 2.06248698 4.92557565 1.609375 9.25390625 C0.94819343 16.86042856 0.98721411 24.31272748 1.25 31.9375 C1.27707031 33.19884766 1.30414063 34.46019531 1.33203125 35.75976562 C1.54234209 42.194599 1.85304481 47.32363729 5 53 C3.35 53 1.7 53 0 53 C0 50.36 0 47.72 0 45 C-0.66 45 -1.32 45 -2 45 C-3.58645357 41.82709287 -3.12078213 38.41174616 -3.09765625 34.9296875 C-3.0962413 34.13345978 -3.09482635 33.33723206 -3.09336853 32.51687622 C-3.08776345 29.9695462 -3.07521014 27.42230353 -3.0625 24.875 C-3.05748565 23.14974085 -3.05292263 21.42448033 -3.04882812 19.69921875 C-3.03779237 15.46611209 -3.02052436 11.23307086 -3 7 C-2.01 7 -1.02 7 0 7 C0 4.69 0 2.38 0 0 Z " fill="#479056" transform="translate(132,227)"/>
<path d="M0 0 C8.04163662 0.02372164 16.00747489 0.52701775 24.0234375 1.1328125 C24.0234375 3.4428125 24.0234375 5.7528125 24.0234375 8.1328125 C15.1134375 8.1328125 6.2034375 8.1328125 -2.9765625 8.1328125 C-2.9765625 0.20000618 -2.9765625 0.20000618 0 0 Z M0.0234375 3.1328125 C0.0234375 4.1228125 0.0234375 5.1128125 0.0234375 6.1328125 C1.0134375 6.1328125 2.0034375 6.1328125 3.0234375 6.1328125 C3.0234375 5.1428125 3.0234375 4.1528125 3.0234375 3.1328125 C2.0334375 3.1328125 1.0434375 3.1328125 0.0234375 3.1328125 Z M9.0234375 3.1328125 C9.0234375 4.1228125 9.0234375 5.1128125 9.0234375 6.1328125 C10.0134375 5.8028125 11.0034375 5.4728125 12.0234375 5.1328125 C12.0234375 4.4728125 12.0234375 3.8128125 12.0234375 3.1328125 C11.0334375 3.1328125 10.0434375 3.1328125 9.0234375 3.1328125 Z M18.0234375 3.1328125 C18.0234375 4.1228125 18.0234375 5.1128125 18.0234375 6.1328125 C19.0134375 6.1328125 20.0034375 6.1328125 21.0234375 6.1328125 C21.0234375 5.1428125 21.0234375 4.1528125 21.0234375 3.1328125 C20.0334375 3.1328125 19.0434375 3.1328125 18.0234375 3.1328125 Z " fill="#61B277" transform="translate(203.9765625,208.8671875)"/>
<path d="M0 0 C2 3 2 3 1.58203125 5.4609375 C-0.62259317 8.99922361 -3.5956324 10.09431668 -7.3125 11.625 C-8.64302051 12.19798846 -9.97247232 12.77346564 -11.30078125 13.3515625 C-11.9354834 13.62419922 -12.57018555 13.89683594 -13.22412109 14.17773438 C-15.21692106 15.06117824 -15.21692106 15.06117824 -17.80859375 16.6953125 C-20.4151746 18.2471806 -22.01518574 18.33164603 -25 18 C-26 17 -26 17 -26.25 13.625 C-26 10 -26 10 -24.765625 8.37890625 C-22.73123603 6.79010247 -20.95788432 6.08673356 -18.5 5.3125 C-17.7265625 5.06113281 -16.953125 4.80976563 -16.15625 4.55078125 C-14 4 -14 4 -11 4 C-11 4.99 -11 5.98 -11 7 C-12.43429001 7.67354499 -13.87257057 8.33859701 -15.3125 9 C-16.11300781 9.37125 -16.91351563 9.7425 -17.73828125 10.125 C-20 11 -20 11 -23 11 C-23 11.99 -23 12.98 -23 14 C-20.74934904 13.04317245 -18.49947051 12.08459556 -16.25 11.125 C-15.61578125 10.85558594 -14.9815625 10.58617187 -14.328125 10.30859375 C-11.73905252 9.20284405 -9.17710493 8.09092971 -6.671875 6.8046875 C-5 6 -5 6 -3 6 C-3.33 4.35 -3.66 2.7 -4 1 C-3.34 1 -2.68 1 -2 1 C-2 2.65 -2 4.3 -2 6 C-1.34 6 -0.68 6 0 6 C0 4.02 0 2.04 0 0 Z " fill="#579C67" transform="translate(214,249)"/>
<path d="M0 0 C0.66 0 1.32 0 2 0 C3.76820914 10.14798291 1.85918472 18.33031091 -1 28 C-0.34 28 0.32 28 1 28 C1 30.31 1 32.62 1 35 C0 35 -1 35 -2 35 C-2 35.33 -2 35.66 -2 36 C-4.64 36 -7.28 36 -10 36 C-10.12375 35.38125 -10.2475 34.7625 -10.375 34.125 C-10.87197356 31.80879168 -10.87197356 31.80879168 -13 30 C-12.34 30 -11.68 30 -11 30 C-11 27.36 -11 24.72 -11 22 C-10.67 22 -10.34 22 -10 22 C-10 23.98 -10 25.96 -10 28 C-9.01 28 -8.02 28 -7 28 C-6.67 29.32 -6.34 30.64 -6 32 C-4.98672765 27.98239309 -3.99177957 23.9604617 -3 19.9375 C-2.71382812 18.80376953 -2.42765625 17.67003906 -2.1328125 16.50195312 C-0.75582744 10.87926412 0.403762 5.79566704 0 0 Z " fill="#6AB37B" transform="translate(184,236)"/>
<path d="M0 0 C1.19882812 0.15275391 1.19882812 0.15275391 2.421875 0.30859375 C3.02515625 0.39238281 3.6284375 0.47617188 4.25 0.5625 C3.26 0.8925 2.27 1.2225 1.25 1.5625 C1.25 2.2225 1.25 2.8825 1.25 3.5625 C-0.173125 3.9028125 -0.173125 3.9028125 -1.625 4.25 C-4.91315884 5.23662933 -4.91315884 5.23662933 -6 8 C-6.2475 8.845625 -6.495 9.69125 -6.75 10.5625 C-7.74 12.0475 -7.74 12.0475 -8.75 13.5625 C-8.75 12.5725 -8.75 11.5825 -8.75 10.5625 C-9.9875 10.60375 -11.225 10.645 -12.5 10.6875 C-15.76637962 10.69908291 -17.9646947 10.4193702 -20.75 8.5625 C-19.76 8.2325 -18.77 7.9025 -17.75 7.5625 C-17.09 7.8925 -16.43 8.2225 -15.75 8.5625 C-15.75 7.5725 -15.75 6.5825 -15.75 5.5625 C-14.359375 4.2109375 -14.359375 4.2109375 -12.5 2.9375 C-11.89671875 2.51210937 -11.2934375 2.08671875 -10.671875 1.6484375 C-6.99889974 -0.42694283 -4.13633546 -0.54745616 0 0 Z " fill="#C1C1C1" transform="translate(428.75,231.4375)"/>
<path d="M0 0 C-3.0202692 3.35585467 -4.55392503 4.22157001 -9 6 C-5.37 7.32 -1.74 8.64 2 10 C2 12.97 2 15.94 2 19 C0.68 18.34 -0.64 17.68 -2 17 C-1.01 17 -0.02 17 1 17 C1 15.68 1 14.36 1 13 C0.443125 12.90203125 -0.11375 12.8040625 -0.6875 12.703125 C-6.3811081 11.58748557 -10.90771095 9.77761221 -16 7 C-15 4 -15 4 -12.890625 2.83203125 C-12.01921875 2.49558594 -11.1478125 2.15914062 -10.25 1.8125 C-9.38890625 1.46832031 -8.5278125 1.12414062 -7.640625 0.76953125 C-4.95129902 -0.01419245 -2.78398044 -0.14520761 0 0 Z " fill="#55A369" transform="translate(171,247)"/>
<path d="M0 0 C1.19882812 0.15275391 1.19882812 0.15275391 2.421875 0.30859375 C3.02515625 0.39238281 3.6284375 0.47617188 4.25 0.5625 C3.26 1.0575 3.26 1.0575 2.25 1.5625 C2.25 2.2225 2.25 2.8825 2.25 3.5625 C1.3425 3.81 0.435 4.0575 -0.5 4.3125 C-3.80632105 5.30569879 -3.80632105 5.30569879 -5.6875 7.6875 C-7.75 9.5625 -7.75 9.5625 -11.5 9.8125 C-12.5725 9.73 -13.645 9.6475 -14.75 9.5625 C-14.45902736 6.07082834 -13.99460417 4.80049325 -11.4375 2.3125 C-7.44020638 -0.29038887 -4.6874201 -0.62039384 0 0 Z " fill="#DFDFDF" transform="translate(519.75,231.4375)"/>
<path d="M0 0 C3.96 0 7.92 0 12 0 C10.91174673 4.35301309 10.17741004 5.08737413 7 8 C6.13375 8.886875 5.2675 9.77375 4.375 10.6875 C2 13 2 13 0 14 C0.08378906 13.40832031 0.16757812 12.81664062 0.25390625 12.20703125 C0.35574219 11.41683594 0.45757812 10.62664062 0.5625 9.8125 C0.66691406 9.03519531 0.77132813 8.25789062 0.87890625 7.45703125 C1.12224112 4.55323393 1.12224112 4.55323393 0 0 Z " fill="#CDCDCD" transform="translate(308,213)"/>
<path d="M0 0 C12.66970387 -0.3690205 12.66970387 -0.3690205 18 2 C18 4.31 18 6.62 18 9 C14.69907532 8.62275146 13.20983618 8.18715118 10.6875 5.9375 C6.92319396 3.22369797 4.56212577 3.69070334 0 4 C0 2.68 0 1.36 0 0 Z " fill="#D8D8D8" transform="translate(552,232)"/>
<path d="M0 0 C1.19882813 0.15275391 1.19882813 0.15275391 2.421875 0.30859375 C3.02515625 0.39238281 3.6284375 0.47617188 4.25 0.5625 C4.25 1.2225 4.25 1.8825 4.25 2.5625 C-0.205 3.0575 -0.205 3.0575 -4.75 3.5625 C-4.440625 5.109375 -4.440625 5.109375 -4.125 6.6875 C-3.73805597 10.6859216 -4.23116924 12.89943757 -5.75 16.5625 C-6.41 16.5625 -7.07 16.5625 -7.75 16.5625 C-8.89077657 13.14017028 -8.84815117 10.47576783 -8.8125 6.875 C-8.80347656 5.69550781 -8.79445312 4.51601562 -8.78515625 3.30078125 C-8.77355469 2.39714844 -8.76195312 1.49351562 -8.75 0.5625 C-5.62819599 -0.40411363 -3.22916205 -0.42738909 0 0 Z " fill="#529D68" transform="translate(137.75,203.4375)"/>
<path d="M0 0 C2 3 2 3 1.5859375 5.453125 C-0.63323139 9.01691347 -3.64274416 10.1736874 -7.375 11.75 C-8.04789063 12.05292969 -8.72078125 12.35585938 -9.4140625 12.66796875 C-12.57275101 14.06699417 -15.63812413 15.22496507 -19 16 C-19 15.34 -19 14.68 -19 14 C-19.66 13.67 -20.32 13.34 -21 13 C-20.18015625 12.66226562 -19.3603125 12.32453125 -18.515625 11.9765625 C-17.43796875 11.53054688 -16.3603125 11.08453125 -15.25 10.625 C-14.18265625 10.18414062 -13.1153125 9.74328125 -12.015625 9.2890625 C-10.23079267 8.52611604 -8.46088172 7.72300475 -6.734375 6.8359375 C-5 6 -5 6 -3 6 C-3.33 4.35 -3.66 2.7 -4 1 C-3.34 1 -2.68 1 -2 1 C-2 2.65 -2 4.3 -2 6 C-1.34 6 -0.68 6 0 6 C0 4.02 0 2.04 0 0 Z " fill="#478B56" transform="translate(214,249)"/>
<path d="M0 0 C0.99 0 1.98 0 3 0 C3 1.98 3 3.96 3 6 C10.425 8.97 10.425 8.97 18 12 C18 13.32 18 14.64 18 16 C14.62537285 15.45276317 12.91765 14.9451 10 13 C7.70206987 12.25450395 5.38921287 11.61183799 3.05859375 10.9765625 C1 10 1 10 -0.30078125 8.1015625 C-1.27326442 5.17868012 -0.67211503 2.95730611 0 0 Z " fill="#54A36B" transform="translate(189,239)"/>
<path d="M0 0 C1.39214652 4.17643955 -0.29335734 6.83437793 -1.9375 10.6875 C-2.22818359 11.38939453 -2.51886719 12.09128906 -2.81835938 12.81445312 C-3.53710313 14.54650775 -4.26745331 16.27373781 -5 18 C-8.0234375 14.296875 -8.0234375 14.296875 -7.8125 11.625 C-7.544375 10.75875 -7.27625 9.8925 -7 9 C-6.7525 7.96875 -6.505 6.9375 -6.25 5.875 C-4.75491941 2.43631465 -3.33094584 1.57781645 0 0 Z " fill="#B9B9B9" transform="translate(312,224)"/>
<path d="M0 0 C0.66 0 1.32 0 2 0 C3.21685447 8.40069414 2.79739104 14.97132967 0 23 C-2.02641027 19.4751331 -1.99765466 17.33562056 -1.359375 13.30078125 C-0.95728344 10.72652116 -0.68975765 8.15556027 -0.4375 5.5625 C-0.35371094 4.71816406 -0.26992187 3.87382812 -0.18359375 3.00390625 C-0.04603433 1.50404508 -0.04603433 1.50404508 0 0 Z " fill="#549C63" transform="translate(184,236)"/>
<path d="M0 0 C0.99 0 1.98 0 3 0 C2.36934845 5.7809725 1.34844868 11.3443706 0 17 C-0.99 17 -1.98 17 -3 17 C-2.36934845 11.2190275 -1.34844868 5.6556294 0 0 Z " fill="#5BA56E" transform="translate(178,247)"/>
<path d="M0 0 C1.134375 0.020625 2.26875 0.04125 3.4375 0.0625 C3.4375 2.7025 3.4375 5.3425 3.4375 8.0625 C0.7975 8.0625 -1.8425 8.0625 -4.5625 8.0625 C-4.60491723 5.72955225 -4.60342937 3.39547433 -4.5625 1.0625 C-3.5625 0.0625 -3.5625 0.0625 0 0 Z M-1.5625 3.0625 C-1.5625 4.0525 -1.5625 5.0425 -1.5625 6.0625 C-0.5725 6.0625 0.4175 6.0625 1.4375 6.0625 C1.4375 5.0725 1.4375 4.0825 1.4375 3.0625 C0.4475 3.0625 -0.5425 3.0625 -1.5625 3.0625 Z " fill="#55A46D" transform="translate(205.5625,208.9375)"/>
<path d="M0 0 C1.2065625 0.0309375 1.2065625 0.0309375 2.4375 0.0625 C2.75 3.25 2.75 3.25 2.4375 7.0625 C-0.0625 10 -0.0625 10 -2.5625 12.0625 C-3.5525 11.7325 -4.5425 11.4025 -5.5625 11.0625 C-4.9025 10.7325 -4.2425 10.4025 -3.5625 10.0625 C-3.8925 9.4025 -4.2225 8.7425 -4.5625 8.0625 C-3.9025 8.0625 -3.2425 8.0625 -2.5625 8.0625 C-2.5625 7.0725 -2.5625 6.0825 -2.5625 5.0625 C-3.2225 4.7325 -3.8825 4.4025 -4.5625 4.0625 C-3.5725 4.0625 -2.5825 4.0625 -1.5625 4.0625 C-1.5625 3.4025 -1.5625 2.7425 -1.5625 2.0625 C-2.2225 1.7325 -2.8825 1.4025 -3.5625 1.0625 C-2.5625 0.0625 -2.5625 0.0625 0 0 Z " fill="#326D41" transform="translate(173.5625,237.9375)"/>
<path d="M0 0 C0 2.64 0 5.28 0 8 C-0.33 8 -0.66 8 -1 8 C-1 6.35 -1 4.7 -1 3 C-6.445 5.475 -6.445 5.475 -12 8 C-12.33 7.34 -12.66 6.68 -13 6 C-13.66 5.67 -14.32 5.34 -15 5 C-12.68817262 4.16475914 -10.37559226 3.33172414 -8.0625 2.5 C-7.40314453 2.26152344 -6.74378906 2.02304688 -6.06445312 1.77734375 C-1.11328125 0 -1.11328125 0 0 0 Z " fill="#4F925A" transform="translate(173,239)"/>
<path d="M0 0 C0.33 0 0.66 0 1 0 C1 1.98 1 3.96 1 6 C1.99 6 2.98 6 4 6 C4 8.31 4 10.62 4 13 C4.99 13 5.98 13 7 13 C7.33 12.34 7.66 11.68 8 11 C8.33 11.99 8.66 12.98 9 14 C6.36 14 3.72 14 1 14 C0.814375 13.071875 0.814375 13.071875 0.625 12.125 C0.12802644 9.80879168 0.12802644 9.80879168 -2 8 C-1.34 8 -0.68 8 0 8 C0 5.36 0 2.72 0 0 Z " fill="#3F804D" transform="translate(173,258)"/>
<path d="M0 0 C0.33 0 0.66 0 1 0 C1.01458252 0.6297876 1.02916504 1.2595752 1.04418945 1.90844727 C1.11918994 4.79371321 1.21567639 7.67788723 1.3125 10.5625 C1.34633789 12.0484668 1.34633789 12.0484668 1.38085938 13.56445312 C1.59532034 19.43288487 2.26918971 23.77997927 5 29 C3.35 29 1.7 29 0 29 C0 19.43 0 9.86 0 0 Z " fill="#041E04" transform="translate(132,251)"/>
<path d="M0 0 C1.4589426 0.47730838 2.91713496 0.95691042 4.375 1.4375 C5.18710938 1.70433594 5.99921875 1.97117187 6.8359375 2.24609375 C9 3 9 3 11 4 C11.33 3.01 11.66 2.02 12 1 C12 2.98 12 4.96 12 7 C7.15340923 6.40895235 3.39251833 5.02055843 -1 3 C-0.67 2.01 -0.34 1.02 0 0 Z " fill="#4F9261" transform="translate(160,259)"/>
<path d="M0 0 C1.19882813 0.15275391 1.19882813 0.15275391 2.421875 0.30859375 C3.02515625 0.39238281 3.6284375 0.47617188 4.25 0.5625 C4.25 1.2225 4.25 1.8825 4.25 2.5625 C0.62 2.8925 -3.01 3.2225 -6.75 3.5625 C-7.08 6.8625 -7.41 10.1625 -7.75 13.5625 C-8.08 13.5625 -8.41 13.5625 -8.75 13.5625 C-8.75 9.2725 -8.75 4.9825 -8.75 0.5625 C-5.17489889 -0.33127528 -3.50082437 -0.4633444 0 0 Z " fill="#4A935A" transform="translate(137.75,203.4375)"/>
<path d="M0 0 C3.3 0 6.6 0 10 0 C9.67 1.32 9.34 2.64 9 4 C6.03 4 3.06 4 0 4 C-0.33 3.34 -0.66 2.68 -1 2 C-0.67 1.34 -0.34 0.68 0 0 Z " fill="#161615" transform="translate(171,275)"/>
<path d="M0 0 C0.99 0.33 1.98 0.66 3 1 C3 3.31 3 5.62 3 8 C2.34 8 1.68 8 1 8 C1 6.35 1 4.7 1 3 C-0.11375 2.87625 -1.2275 2.7525 -2.375 2.625 C-6 2 -6 2 -8 0 C-5.11301479 -1.4434926 -3.10530768 -0.63373626 0 0 Z " fill="#59A46B" transform="translate(211,247)"/>
<path d="M0 0 C0.66 0.99 1.32 1.98 2 3 C1.67 3.99 1.34 4.98 1 6 C2.32 5.01 3.64 4.02 5 3 C4.67 4.32 4.34 5.64 4 7 C1.69 7.33 -0.62 7.66 -3 8 C-3 5.69 -3 3.38 -3 1 C-2.01 0.67 -1.02 0.34 0 0 Z " fill="#48975B" transform="translate(212,209)"/>
<path d="M0 0 C0.66 0.33 1.32 0.66 2 1 C1.25 8.75 1.25 8.75 -1 11 C-3 9 -3 9 -4 7 C-1.55555556 1.55555556 -1.55555556 1.55555556 0 0 Z " fill="#BCBCBC" transform="translate(299,252)"/>
<path d="M0 0 C0.99 0 1.98 0 3 0 C2.938125 0.94875 2.87625 1.8975 2.8125 2.875 C2.874375 3.90625 2.93625 4.9375 3 6 C3.99 6.66 4.98 7.32 6 8 C6 8.66 6 9.32 6 10 C4.35 10 2.7 10 1 10 C-0.80411967 7.24075815 -1.0127245 6.11027897 -0.625 2.75 C-0.41875 1.8425 -0.2125 0.935 0 0 Z " fill="#65AE77" transform="translate(189,239)"/>
<path d="M0 0 C1.65 0 3.3 0 5 0 C5.625 1.875 5.625 1.875 6 4 C5.34 4.66 4.68 5.32 4 6 C1.875 5.625 1.875 5.625 0 5 C0 3.35 0 1.7 0 0 Z " fill="#C5C5C5" transform="translate(321,269)"/>
<path d="M0 0 C0.33 0.66 0.66 1.32 1 2 C5.64586892 1.51515724 5.64586892 1.51515724 10 0 C10.12375 0.639375 10.2475 1.27875 10.375 1.9375 C10.58125 2.618125 10.7875 3.29875 11 4 C11.66 4.33 12.32 4.66 13 5 C10.69 5.66 8.38 6.32 6 7 C5.34 6.34 4.68 5.68 4 5 C4.99 5 5.98 5 7 5 C7 4.34 7 3.68 7 3 C4.69 3 2.38 3 0 3 C0 2.01 0 1.02 0 0 Z " fill="#565656" transform="translate(504,239)"/>
<path d="M0 0 C0.33 0 0.66 0 1 0 C1.33 5.61 1.66 11.22 2 17 C3.32 17.66 4.64 18.32 6 19 C4.02 19.66 2.04 20.32 0 21 C0 14.07 0 7.14 0 0 Z " fill="#3B3B3B" transform="translate(593,214)"/>
<path d="M0 0 C4.62 0 9.24 0 14 0 C14 0.33 14 0.66 14 1 C10.37 1 6.74 1 3 1 C2.34 4.63 1.68 8.26 1 12 C0.67 12 0.34 12 0 12 C0 8.04 0 4.08 0 0 Z " fill="#3B3B3B" transform="translate(345,216)"/>
<path d="M0 0 C0.66 0.33 1.32 0.66 2 1 C2 1.99 2 2.98 2 4 C0.02253397 4.73080266 -1.98072489 5.39421747 -4 6 C-4.66 5.67 -5.32 5.34 -6 5 C-7.67654729 5.27942455 -9.34608154 5.60828247 -11 6 C-10 4 -10 4 -7.96875 3.18359375 C-7.1540625 2.93738281 -6.339375 2.69117188 -5.5 2.4375 C-2.48668507 1.67451663 -2.48668507 1.67451663 0 0 Z " fill="#3D804B" transform="translate(201,252)"/>
<path d="M0 0 C0.66 0.99 1.32 1.98 2 3 C1.125 5.6875 1.125 5.6875 0 8 C-2.64 8 -5.28 8 -8 8 C-7.34 7.34 -6.68 6.68 -6 6 C-5.01 6 -4.02 6 -3 6 C-3.33 4.35 -3.66 2.7 -4 1 C-3.34 1 -2.68 1 -2 1 C-2 2.65 -2 4.3 -2 6 C-1.34 6 -0.68 6 0 6 C0 4.02 0 2.04 0 0 Z " fill="#2A5D3C" transform="translate(214,249)"/>
<path d="M0 0 C-4.27320453 2.84880302 -6.78168857 4.28990619 -12 4 C-8.41084094 -0.78554541 -5.58334594 -0.37222306 0 0 Z " fill="#569D67" transform="translate(213,257)"/>
<path d="M0 0 C-2.83430453 3.2542015 -4.68607774 4.5206753 -9 5 C-9.33 4.01 -9.66 3.02 -10 2 C-6.49223216 0.39644899 -3.85645121 -0.22036864 0 0 Z " fill="#599768" transform="translate(171,247)"/>
<path d="M0 0 C0 2.64 0 5.28 0 8 C-2.31 8 -4.62 8 -7 8 C-7 7.67 -7 7.34 -7 7 C-5.35 7 -3.7 7 -2 7 C-2 5.68 -2 4.36 -2 3 C-2.66 3 -3.32 3 -4 3 C-4 2.34 -4 1.68 -4 1 C-2 0 -2 0 0 0 Z " fill="#73C486" transform="translate(209,209)"/>
<path d="M0 0 C0.33 0.66 0.66 1.32 1 2 C1.66 2 2.32 2 3 2 C3 4.31 3 6.62 3 9 C2.34 9 1.68 9 1 9 C0.34 8.34 -0.32 7.68 -1 7 C-0.625 3.375 -0.625 3.375 0 0 Z " fill="#172118" transform="translate(182,262)"/>
<path d="M0 0 C4.75 0.75 4.75 0.75 7 3 C6.67 3.66 6.34 4.32 6 5 C3.69 4.34 1.38 3.68 -1 3 C-0.67 2.01 -0.34 1.02 0 0 Z " fill="#489359" transform="translate(192,240)"/>
<path d="M0 0 C1.32 0 2.64 0 4 0 C4 2.97 4 5.94 4 9 C2.68 8.34 1.36 7.68 0 7 C0.99 7 1.98 7 3 7 C3 5.68 3 4.36 3 3 C2.01 3 1.02 3 0 3 C0 2.01 0 1.02 0 0 Z " fill="#70BE81" transform="translate(169,257)"/>
<path d="M0 0 C1.2065625 0.0309375 1.2065625 0.0309375 2.4375 0.0625 C2.4375 2.3725 2.4375 4.6825 2.4375 7.0625 C1.4475 7.5575 1.4475 7.5575 0.4375 8.0625 C0.1075 6.0825 -0.2225 4.1025 -0.5625 2.0625 C-1.5525 1.7325 -2.5425 1.4025 -3.5625 1.0625 C-2.5625 0.0625 -2.5625 0.0625 0 0 Z " fill="#102118" transform="translate(173.5625,237.9375)"/>
<path d="M0 0 C0.99 0.66 1.98 1.32 3 2 C2.67 3.98 2.34 5.96 2 8 C0.68 7.67 -0.64 7.34 -2 7 C-1.34 4.69 -0.68 2.38 0 0 Z " fill="#458658" transform="translate(180,239)"/>
<path d="M0 0 C0.66 0 1.32 0 2 0 C2.33 3.96 2.66 7.92 3 12 C2.01 11.67 1.02 11.34 0 11 C0 7.37 0 3.74 0 0 Z " fill="#407D4D" transform="translate(184,236)"/>
<path d="M0 0 C0 2.64 0 5.28 0 8 C-0.33 8 -0.66 8 -1 8 C-1 6.35 -1 4.7 -1 3 C-2.65 3.33 -4.3 3.66 -6 4 C-5.67 3.01 -5.34 2.02 -5 1 C-3.28960011 0.41205004 -1.81522119 0 0 0 Z " fill="#76C789" transform="translate(173,239)"/>
<path d="M0 0 C2.0625 0.4375 2.0625 0.4375 4 1 C2.8553125 1.6496875 2.8553125 1.6496875 1.6875 2.3125 C-0.58093768 3.73686785 -2.2199723 5.03260097 -4 7 C-4.66 6.67 -5.32 6.34 -6 6 C-4 4 -2 2 0 0 Z " fill="#BBBBBB" transform="translate(511,232)"/>
<path d="M0 0 C0 0.66 0 1.32 0 2 C-2.64 2 -5.28 2 -8 2 C-7 0 -7 0 -5.125 -0.6875 C-3 -1 -3 -1 0 0 Z " fill="#FCFCFC" transform="translate(519,245)"/>
<path d="M0 0 C0.99 0.33 1.98 0.66 3 1 C-0.465 3.97 -0.465 3.97 -4 7 C-2.92598892 4.08482708 -2.22189824 2.22189824 0 0 Z " fill="#B7B7B7" transform="translate(547,234)"/>
<path d="" fill="#190019" transform="translate(0,0)"/>
</svg>